<svg width="297" height="359" viewBox="0 0 297 359" fill="none" xmlns="http://www.w3.org/2000/svg">
<path fill-rule="evenodd" clip-rule="evenodd" d="M98.8641 63.2295L50.3641 76.9285L50.1071 147.393C49.8251 224.946 49.6241 222.005 56.0681 234.864C67.6891 258.055 99.0181 284.464 138.364 304.236L148.364 309.261L161.357 302.589C200.572 282.449 231.247 255.572 241.861 232.053C246.948 220.784 246.994 219.952 246.668 145.953L246.364 76.9915L199.364 63.7405C173.514 56.4525 151.239 50.2735 149.864 50.0105C148.393 49.7285 127.404 55.1685 98.8641 63.2295ZM109.364 71.3485C88.4641 77.2725 68.7761 82.8745 65.6141 83.7965L59.8641 85.4725V149.234C59.8641 218.944 59.8291 218.46 65.8021 230.293C75.8351 250.169 103.056 273.478 137.29 291.508L148.215 297.262L155.79 293.434C174.076 284.192 195.969 269.328 209.799 256.763C223.399 244.407 233.512 228.538 235.788 215.982C236.481 212.162 236.864 187.878 236.864 147.81V85.5715L233.614 84.5455C228.487 82.9275 148.002 60.4075 147.666 60.4975C147.5 60.5415 130.264 65.4245 109.364 71.3485ZM100.864 94.4165V106.416H103.364C105.779 106.416 105.866 106.186 105.913 99.6665L105.962 92.9165L109.427 99.6665C112.298 105.26 113.317 106.416 115.378 106.416H117.864V94.4165V82.4165H115.364C112.947 82.4165 112.863 82.6405 112.835 89.1665L112.806 95.9165L109.206 89.1665C106.313 83.7435 105.139 82.4165 103.235 82.4165C100.872 82.4165 100.864 82.4575 100.864 94.4165ZM122.317 83.8275C120.749 84.9735 120.318 86.7585 120.019 93.3405C119.512 104.511 120.774 106.416 128.687 106.416C131.864 106.416 135.004 105.876 135.664 105.216C136.422 104.458 136.864 100.65 136.864 94.8715C136.864 87.2815 136.553 85.4445 135.035 84.0715C132.761 82.0135 125.002 81.8645 122.317 83.8275ZM145.864 94.4825V106.549L148.614 106.232C151.002 105.958 151.405 105.422 151.674 102.166C152.076 97.3115 153.475 97.4035 155.481 102.416C156.831 105.791 157.533 106.416 159.973 106.416C163.407 106.416 163.409 106.404 160.894 101.474C159.174 98.1035 159.11 97.4575 160.394 96.3915C161.315 95.6265 161.864 93.3725 161.864 90.3505C161.864 84.1145 159.676 82.4165 151.641 82.4165H145.864V94.4825ZM164.864 94.4165V106.416H171.864C178.197 106.416 178.864 106.226 178.864 104.416C178.864 102.712 178.197 102.416 174.364 102.416C170.262 102.416 169.864 102.201 169.864 99.9795C169.864 97.9615 170.422 97.4895 173.114 97.2295C175.605 96.9895 176.439 96.3915 176.684 94.6665C176.964 92.6935 176.563 92.4165 173.434 92.4165C170.293 92.4165 169.864 92.1165 169.864 89.9165C169.864 87.6205 170.231 87.4165 174.364 87.4165C178.497 87.4165 178.864 87.2125 178.864 84.9165C178.864 82.4875 178.664 82.4165 171.864 82.4165H164.864V94.4165ZM180.864 94.4165V106.416H183.364C185.614 106.416 185.864 106.016 185.864 102.416C185.864 98.4285 185.876 98.4165 189.793 98.4165C194.974 98.4165 196.864 96.3935 196.864 90.8455C196.864 84.3965 194.515 82.4165 186.864 82.4165H180.864V94.4165ZM126.07 94.6665C126.353 101.654 126.454 101.916 128.864 101.916C131.274 101.916 131.375 101.654 131.658 94.6665L131.952 87.4165H128.864H125.776L126.07 94.6665ZM151.864 90.4165C151.864 92.9495 152.253 93.4165 154.364 93.4165C156.475 93.4165 156.864 92.9495 156.864 90.4165C156.864 87.8835 156.475 87.4165 154.364 87.4165C152.253 87.4165 151.864 87.8835 151.864 90.4165ZM185.864 90.9865C185.864 94.0705 186.156 94.5125 188.012 94.2365C192.743 93.5325 193.087 87.4165 188.395 87.4165C186.16 87.4165 185.864 87.8335 185.864 90.9865ZM76.8641 164.916V214.416H89.8641H102.864V186.857C102.864 171.7 103.222 159.519 103.66 159.79C104.097 160.06 112.079 172.462 121.396 187.349L138.336 214.416H151.6H164.864V178.416V142.416H175.964H187.064L190.464 145.816C193.45 148.802 193.864 149.843 193.864 154.366C193.864 160.71 191.856 164.809 187.887 166.566C186.224 167.302 184.866 168.132 184.869 168.41C184.872 168.688 188.36 179.041 192.619 191.416L200.364 213.916L213.614 214.195C220.902 214.348 226.864 214.102 226.864 213.648C226.864 213.194 223.76 203.836 219.966 192.852C213.161 173.154 213.093 172.852 214.909 170.608C218.526 166.142 221.084 157.327 221.205 148.916C221.31 141.589 221.03 140.377 217.873 134.516C213.859 127.065 207.647 121.678 199.116 118.25C193.671 116.063 191.882 115.922 165.63 115.62L137.896 115.3L137.63 142.577L137.364 169.854L120.364 142.646L103.364 115.437L90.1141 115.427L76.8641 115.416V164.916ZM83.8641 229.416C83.8641 233.194 83.4971 234.416 82.3641 234.416C81.5391 234.416 80.8641 233.741 80.8641 232.916C80.8641 232.091 80.3831 231.416 79.7941 231.416C79.2061 231.416 78.8691 232.428 79.0441 233.666C79.2951 235.428 80.0141 235.916 82.3641 235.916C85.3151 235.916 85.3691 235.822 85.6641 230.166C85.8491 226.627 85.5601 224.416 84.9141 224.416C84.3211 224.416 83.8641 226.591 83.8641 229.416ZM88.0641 230.166L88.3641 235.916H91.8641H95.3641L95.6671 230.065C95.8981 225.607 95.6601 224.316 94.6671 224.643C93.9081 224.893 93.2371 227.023 93.0591 229.744C92.8461 233.011 92.3201 234.416 91.3091 234.416C90.2421 234.416 89.8641 233.11 89.8641 229.416C89.8641 226.591 89.4071 224.416 88.8141 224.416C88.1681 224.416 87.8791 226.627 88.0641 230.166ZM97.5311 225.083C97.1641 225.449 96.8641 228.149 96.8641 231.083V236.416H100.364C102.289 236.416 103.864 235.966 103.864 235.416C103.864 234.866 102.964 234.416 101.864 234.416C100.753 234.416 99.8641 233.749 99.8641 232.916C99.8641 232.083 100.753 231.416 101.864 231.416C102.964 231.416 103.864 230.966 103.864 230.416C103.864 229.866 102.964 229.416 101.864 229.416C100.764 229.416 99.8641 228.966 99.8641 228.416C99.8641 227.866 100.764 227.416 101.864 227.416C102.975 227.416 103.864 226.749 103.864 225.916C103.864 224.387 98.8821 223.731 97.5311 225.083ZM106.107 225.573C104.7 226.98 104.461 233.232 105.738 235.246C106.217 236.002 107.83 236.434 109.473 236.246C111.707 235.991 112.427 235.348 112.643 233.416C112.9 231.121 112.809 231.06 111.533 232.666C109.336 235.433 107.864 234.731 107.864 230.916C107.864 228.472 108.316 227.416 109.364 227.416C110.189 227.416 110.864 227.866 110.864 228.416C110.864 228.966 111.345 229.416 111.934 229.416C112.522 229.416 112.859 228.404 112.684 227.166C112.315 224.569 108.126 223.554 106.107 225.573ZM114.864 230.416V236.416H117.864C119.514 236.416 120.864 235.966 120.864 235.416C120.864 234.866 119.964 234.416 118.864 234.416C117.753 234.416 116.864 233.749 116.864 232.916C116.864 232.083 117.753 231.416 118.864 231.416C119.964 231.416 120.864 230.966 120.864 230.416C120.864 229.866 119.964 229.416 118.864 229.416C117.764 229.416 116.864 228.966 116.864 228.416C116.864 227.866 117.764 227.416 118.864 227.416C119.975 227.416 120.864 226.749 120.864 225.916C120.864 224.916 119.864 224.416 117.864 224.416H114.864V230.416ZM122.935 226.284C121.545 228.881 122.506 231.221 125.12 231.608C127.589 231.972 128.744 234.416 126.447 234.416C125.577 234.416 124.864 233.966 124.864 233.416C124.864 232.866 124.189 232.416 123.364 232.416C121.681 232.416 121.613 232.599 122.471 234.834C123.314 237.031 128.539 236.892 129.744 234.64C130.993 232.307 129.371 229.416 126.814 229.416C125.742 229.416 124.864 228.917 124.864 228.308C124.864 227.615 125.833 227.442 127.445 227.847C129.563 228.378 129.965 228.174 129.686 226.705C129.186 224.068 124.285 223.762 122.935 226.284ZM135.864 230.476V236.537L139.614 236.226C143.265 235.924 143.372 235.802 143.675 231.592C144.045 226.449 142.648 224.416 138.742 224.416C135.888 224.416 135.864 224.467 135.864 230.476ZM144.864 230.416V236.416H148.364C150.289 236.416 151.864 235.966 151.864 235.416C151.864 234.866 150.964 234.416 149.864 234.416C148.753 234.416 147.864 233.749 147.864 232.916C147.864 232.091 148.539 231.416 149.364 231.416C150.189 231.416 150.864 230.966 150.864 230.416C150.864 229.866 150.189 229.416 149.364 229.416C147.166 229.416 147.533 227.736 149.864 227.126C153.152 226.266 152.128 224.416 148.364 224.416H144.864V230.416ZM152.864 230.356C152.864 235.076 153.196 236.416 154.364 236.416C155.189 236.416 155.864 235.547 155.864 234.486C155.864 233.245 156.668 232.441 158.114 232.236C159.958 231.974 160.364 231.284 160.364 228.416C160.364 225.093 160.174 224.9 156.614 224.606L152.864 224.295V230.356ZM163.053 225.254C162.187 225.819 161.848 227.775 162.053 231.013C162.362 235.891 162.382 235.916 165.864 235.916H169.364V230.416C169.364 225.285 169.196 224.899 166.864 224.657C165.489 224.514 163.774 224.783 163.053 225.254ZM171.578 225.035C171.185 225.428 170.864 228.149 170.864 231.083C170.864 235.157 171.218 236.416 172.364 236.416C173.237 236.416 173.886 235.476 173.916 234.166L173.969 231.916L175.538 234.166C177.974 237.657 178.618 236.892 178.486 230.666C178.366 225.025 178.306 224.91 175.328 224.619C173.658 224.455 171.971 224.643 171.578 225.035ZM179.864 225.916C179.864 226.741 180.314 227.416 180.864 227.416C181.414 227.416 181.864 229.441 181.864 231.916C181.864 235.249 182.253 236.416 183.364 236.416C184.475 236.416 184.864 235.249 184.864 231.916C184.864 229.441 185.314 227.416 185.864 227.416C186.414 227.416 186.864 226.741 186.864 225.916C186.864 224.868 185.808 224.416 183.364 224.416C180.92 224.416 179.864 224.868 179.864 225.916ZM187.864 230.416C187.864 233.749 188.308 236.416 188.864 236.416C189.42 236.416 189.864 233.749 189.864 230.416C189.864 227.083 189.42 224.416 188.864 224.416C188.308 224.416 187.864 227.083 187.864 230.416ZM191.233 226.166C191.51 227.129 192.292 229.847 192.971 232.207C194.621 237.945 196.841 237.429 198.53 230.915C200.138 224.709 200.152 224.153 198.688 224.641C198.041 224.857 196.994 226.807 196.361 228.975L195.21 232.916L194.449 228.666C193.958 225.924 193.163 224.416 192.209 224.416C191.274 224.416 190.915 225.061 191.233 226.166ZM201.27 225.802C200.977 226.564 200.879 229.151 201.051 231.552C201.337 235.535 201.617 235.945 204.255 236.246C205.898 236.434 207.511 236.002 207.99 235.246C209.249 233.261 209.036 226.988 207.664 225.616C206.028 223.98 201.923 224.099 201.27 225.802ZM211.114 225.078C208.801 226.012 209.665 230.39 212.364 231.416C213.739 231.939 214.864 232.828 214.864 233.391C214.864 234.852 212.119 234.663 211.584 233.166C211.339 232.479 210.796 232.234 210.377 232.623C208.576 234.298 210.894 236.54 214.107 236.23C216.819 235.968 217.364 235.503 217.364 233.446C217.364 231.877 216.536 230.562 215.096 229.844C211.364 227.984 211.157 227.138 214.614 227.879C217.965 228.597 218.763 227.715 216.664 225.616C215.435 224.387 213.332 224.183 211.114 225.078ZM137.864 230.916C137.864 233.36 138.316 234.416 139.364 234.416C140.412 234.416 140.864 233.36 140.864 230.916C140.864 228.472 140.412 227.416 139.364 227.416C138.316 227.416 137.864 228.472 137.864 230.916ZM155.864 228.999C155.864 230.765 158.017 230.458 158.635 228.604C158.853 227.95 158.318 227.416 157.447 227.416C156.577 227.416 155.864 228.129 155.864 228.999ZM164.051 230.666C164.251 232.749 164.903 233.916 165.864 233.916C166.825 233.916 167.477 232.749 167.677 230.666C167.942 227.92 167.661 227.416 165.864 227.416C164.067 227.416 163.786 227.92 164.051 230.666ZM173.864 228.999C173.864 229.87 174.398 230.405 175.052 230.187C176.906 229.569 177.213 227.416 175.447 227.416C174.577 227.416 173.864 228.129 173.864 228.999ZM202.864 230.916C202.864 233.36 203.316 234.416 204.364 234.416C205.412 234.416 205.864 233.36 205.864 230.916C205.864 228.472 205.412 227.416 204.364 227.416C203.316 227.416 202.864 228.472 202.864 230.916ZM116.044 249.112C116.259 250.23 118.501 251.436 122.617 252.648C126.598 253.82 128.864 255.019 128.864 255.952C128.864 257.553 131.407 257.965 132.306 256.51C132.928 255.504 139.864 257.3 139.864 258.467C139.864 259.549 134.727 260.322 131.614 259.708C129.586 259.308 128.864 259.564 128.864 260.68C128.864 261.696 126.727 262.772 122.364 263.953C117.338 265.314 115.864 266.133 115.864 267.564C115.864 269.816 115.547 269.812 123.616 267.666C128.524 266.36 130.297 266.219 130.594 267.11C131.105 268.638 133.864 267.622 133.864 265.906C133.864 264.861 145.603 260.416 148.364 260.416C151.029 260.416 162.762 264.82 162.585 265.754C162.443 266.5 163.643 266.819 165.93 266.646C167.892 266.497 171.436 267.059 173.806 267.896C179.384 269.864 180.864 269.813 180.864 267.654C180.864 266.342 179.201 265.415 174.364 264.03C170.787 263.005 167.864 261.601 167.864 260.908C167.864 260.051 166.258 259.671 162.855 259.723C156.256 259.822 154.59 258.169 159.869 256.76C162.066 256.174 163.864 256.081 163.864 256.555C163.864 257.029 164.764 257.416 165.864 257.416C166.964 257.416 167.864 256.757 167.864 255.952C167.864 255.028 170.167 253.782 174.114 252.572C178.016 251.376 180.485 250.047 180.687 249.036C181.094 246.998 179.951 247.007 172.491 249.101C168.426 250.241 166.371 250.437 166.128 249.707C165.93 249.114 164.921 248.85 163.885 249.121C162.85 249.392 162.208 250.15 162.46 250.806C162.75 251.561 160.246 252.786 155.639 254.141L148.359 256.283L141.112 254.148C137.125 252.974 133.864 251.478 133.864 250.822C133.864 249.19 131.334 248.346 130.11 249.57C129.447 250.233 127.335 250.039 123.807 248.992C117.054 246.986 115.639 247.008 116.044 249.112Z" fill="#FFFCFC"/>
</svg>
